# xmcd CD database file
#
# Track frame offsets:
#	150
#	7636
#	21396
#	32871
#	46192
#	72391
#	82748
#	96156
#	107810
#	120991
#	135885
#	145821
#	158368
#	170804
#	187072
#	202680
#	214028
#	222820
#	237641
#	252561
#
# Disc length: 3534 seconds
#
# Revision: 0
# Processed by: cddbd v1.5.2PL0 Copyright (c) Steve Scherf et al.
# Submitted via: CDex 2.01
#
DISCID=0a0dcc14
DTITLE=Various Not Now Music - Trouble So Hard (40 Prison Songs From The Chain Gang)
DYEAR=2014
DGENRE=Blues
TTITLE0=Vera Hall  Troubled So Hard
TTITLE1=Mississippi And Louisiana State Penitentiaries Prisoners   Old Alabama
TTITLE2=Golden Gate Quartet  God's Gonna Cut Them Down
TTITLE3=Blind Willie McTell With Curley Weaver   Lord Have Mercy If You Please
TTITLE4=Prisoners At The Ramsey And Retrieve State Farms, Texas   Let Your Hammer Ring
TTITLE5=Mahalia Jackson   Amazing Grace
TTITLE6=Leadbelly  Pick A Bale Of Cotton
TTITLE7=Brownie McGhee Coyal McMahan Sonny Terry The Midnight Special
TTITLE8=Five Blind Boys     He's My Rock
TTITLE9=Blind Willie Johnson    John The Revelator
TTITLE10=Horace Sprott   Take This Hammer
TTITLE11=Mississippi Fred McDowell   Keep Your Lamps Trimmed And Burned
TTITLE12=The Charioteers Wade In The Water
TTITLE13=The Staple Singers   Stand By Me
TTITLE14='22' and Group  Old Dollar Mamie
TTITLE15=Sister Rosetta Tharpe Down By The Riverside
TTITLE16=Prison Group  Berta
TTITLE17=Big Bill Broonzy   C.C. Rider
TTITLE18=Josh White and His Carolinians  Told My Cap'n
TTITLE19=The Skylarks    Roll Jordan Roll
EXTD=YEAR: 2014
EXTT0=
EXTT1=
EXTT2=
EXTT3=
EXTT4=
EXTT5=
EXTT6=
EXTT7=
EXTT8=
EXTT9=
EXTT10=
EXTT11=
EXTT12=
EXTT13=
EXTT14=
EXTT15=
EXTT16=
EXTT17=
EXTT18=
EXTT19=
PLAYORDER=
